<svg xmlns="http://www.w3.org/2000/svg" xmlns:xlink="http://www.w3.org/1999/xlink" width="500" zoomAndPan="magnify" viewBox="0 0 375 374.999991" height="500" preserveAspectRatio="xMidYMid meet" version="1.0"><defs><clipPath id="9e15e12a00"><path d="M 347 169 L 358.160156 169 L 358.160156 199 L 347 199 Z M 347 169 " clip-rule="nonzero"/></clipPath></defs><path fill="#1a3b50" d="M 206.839844 186.515625 C 206.839844 186.933594 206.761719 187.332031 206.601562 187.714844 C 206.441406 188.097656 206.21875 188.433594 205.921875 188.726562 C 205.628906 189.019531 205.292969 189.246094 204.910156 189.40625 C 204.527344 189.5625 204.128906 189.644531 203.714844 189.644531 C 203.296875 189.644531 202.898438 189.5625 202.515625 189.40625 C 202.132812 189.246094 201.796875 189.019531 201.503906 188.726562 C 201.210938 188.433594 200.984375 188.097656 200.824219 187.714844 C 200.664062 187.332031 200.585938 186.933594 200.585938 186.515625 C 200.585938 186.101562 200.664062 185.703125 200.824219 185.320312 C 200.984375 184.9375 201.210938 184.601562 201.503906 184.304688 C 201.796875 184.011719 202.132812 183.789062 202.515625 183.628906 C 202.898438 183.46875 203.296875 183.390625 203.714844 183.390625 C 204.128906 183.390625 204.527344 183.46875 204.910156 183.628906 C 205.292969 183.789062 205.628906 184.011719 205.921875 184.304688 C 206.214844 184.601562 206.441406 184.9375 206.601562 185.320312 C 206.761719 185.703125 206.839844 186.101562 206.839844 186.515625 Z M 206.839844 186.515625 " fill-opacity="1" fill-rule="nonzero"/><path fill="#1a3b50" d="M 308.445312 281.089844 C 266.632812 324.859375 202.148438 337.757812 146.65625 313.136719 C 76.703125 282.261719 43.09375 201.757812 70.449219 130.632812 L 81.394531 177.136719 C 81.785156 179.875 84.519531 181.828125 87.253906 181.046875 C 89.992188 180.265625 91.554688 177.917969 90.773438 175.183594 C 90.773438 175.183594 75.53125 110.703125 75.53125 110.703125 C 75.140625 109.140625 73.96875 107.574219 72.011719 107.183594 C 70.449219 106.792969 68.496094 107.183594 67.324219 108.355469 L 18.863281 157.597656 C 16.910156 159.550781 16.910156 162.679688 18.863281 164.632812 C 20.820312 166.585938 23.945312 166.585938 25.898438 164.632812 L 60.679688 129.460938 C 31.761719 209.183594 72.796875 297.113281 152.519531 326.03125 C 209.574219 346.746094 273.667969 331.894531 315.871094 288.125 C 317.828125 286.171875 317.828125 283.042969 316.261719 281.089844 C 312.355469 277.964844 309.230469 280.699219 308.445312 281.089844 Z M 308.445312 281.089844 " fill-opacity="1" fill-rule="nonzero"/><path fill="#1a3b50" d="M 272.882812 55.597656 C 275.230469 56.773438 277.964844 55.988281 279.527344 53.644531 C 280.699219 51.300781 279.917969 48.175781 277.574219 47 C 277.574219 47 261.550781 39.578125 259.207031 38.796875 C 256.863281 37.621094 253.734375 38.796875 252.5625 41.140625 C 251.390625 43.484375 252.5625 46.609375 254.90625 47.785156 C 255.296875 47.394531 269.757812 53.644531 272.882812 55.597656 Z M 272.882812 55.597656 " fill-opacity="1" fill-rule="nonzero"/><path fill="#1a3b50" d="M 172.839844 41.53125 C 173.230469 41.53125 186.128906 39.1875 192.378906 38.796875 C 195.117188 38.402344 197.070312 36.058594 196.679688 33.714844 C 196.679688 30.980469 193.941406 29.023438 191.207031 29.023438 C 191.207031 29.023438 177.921875 30.589844 171.277344 32.152344 C 168.539062 32.933594 166.976562 35.277344 167.757812 38.011719 C 168.539062 39.96875 170.496094 41.53125 172.839844 41.53125 Z M 172.839844 41.53125 " fill-opacity="1" fill-rule="nonzero"/><path fill="#1a3b50" d="M 306.101562 80.21875 C 306.882812 81 310.011719 82.957031 313.136719 80.21875 C 315.089844 78.265625 315.089844 75.140625 313.136719 73.183594 C 308.445312 68.496094 303.367188 64.195312 297.894531 59.898438 C 295.550781 58.335938 292.816406 58.726562 290.859375 60.679688 C 289.296875 63.023438 289.6875 65.761719 291.644531 67.714844 C 297.113281 71.621094 301.804688 75.921875 306.101562 80.21875 Z M 306.101562 80.21875 " fill-opacity="1" fill-rule="nonzero"/><path fill="#1a3b50" d="M 234.195312 41.140625 C 234.195312 41.140625 238.886719 42.3125 240.058594 37.230469 C 240.839844 33.714844 238.492188 31.761719 236.539062 31.371094 C 229.898438 30.199219 223.253906 29.023438 216.609375 28.632812 C 213.875 28.242188 211.527344 30.199219 211.136719 32.933594 C 210.746094 35.667969 212.703125 38.011719 215.4375 38.402344 C 215.046875 38.402344 227.941406 39.96875 234.195312 41.140625 Z M 234.195312 41.140625 " fill-opacity="1" fill-rule="nonzero"/><path fill="#1a3b50" d="M 135.324219 55.988281 C 140.792969 52.863281 146.65625 50.519531 152.519531 48.175781 C 154.863281 47 156.425781 44.265625 155.253906 41.921875 C 154.082031 39.578125 151.347656 38.011719 149 39.1875 C 142.75 41.53125 136.496094 44.65625 130.632812 47.785156 C 128.289062 48.957031 127.117188 52.082031 128.679688 54.425781 C 131.023438 57.945312 134.542969 56.382812 135.324219 55.988281 Z M 135.324219 55.988281 " fill-opacity="1" fill-rule="nonzero"/><path fill="#1a3b50" d="M 345.183594 152.125 C 345.574219 154.472656 347.527344 156.816406 351.042969 156.035156 C 353.78125 155.644531 355.34375 152.910156 354.953125 150.171875 C 354.953125 150.171875 351.824219 136.886719 349.480469 130.632812 C 348.699219 127.898438 345.964844 126.726562 343.226562 127.507812 C 340.882812 128.289062 339.320312 131.023438 340.101562 133.367188 C 340.101562 133.757812 344.011719 145.875 345.183594 152.125 Z M 345.183594 152.125 " fill-opacity="1" fill-rule="nonzero"/><path fill="#1a3b50" d="M 350.261719 212.308594 C 347.527344 211.527344 345.183594 213.089844 344.402344 215.828125 C 342.835938 222.078125 340.882812 227.941406 338.929688 233.804688 C 338.148438 236.148438 339.320312 239.273438 341.664062 240.058594 C 344.792969 241.230469 347.136719 239.273438 347.917969 237.320312 C 350.261719 231.066406 352.214844 224.425781 353.78125 218.171875 C 354.5625 215.4375 353 213.089844 350.261719 212.308594 Z M 350.261719 212.308594 " fill-opacity="1" fill-rule="nonzero"/><path fill="#1a3b50" d="M 335.414062 252.5625 C 333.066406 251.390625 329.941406 252.171875 328.769531 254.125 C 325.640625 259.597656 322.125 264.675781 318.21875 269.757812 C 316.652344 272.101562 317.042969 274.839844 319 276.792969 C 320.953125 278.746094 324.078125 277.964844 326.035156 276.011719 C 330.332031 270.539062 333.847656 265.066406 337.367188 259.207031 C 338.539062 256.859375 337.757812 253.734375 335.414062 252.5625 Z M 335.414062 252.5625 " fill-opacity="1" fill-rule="nonzero"/><g clip-path="url(#9e15e12a00)"><path fill="#1a3b50" d="M 358.078125 174.011719 C 358.078125 171.277344 355.734375 169.320312 353 169.320312 C 350.261719 169.320312 348.308594 171.667969 348.308594 174.402344 C 348.308594 176.746094 348.308594 189.644531 347.917969 193.550781 C 347.527344 196.289062 349.871094 198.632812 352.214844 198.632812 C 352.214844 198.632812 357.296875 199.414062 357.6875 193.941406 C 358.078125 190.425781 358.078125 176.746094 358.078125 174.011719 Z M 358.078125 174.011719 " fill-opacity="1" fill-rule="nonzero"/></g><path fill="#1a3b50" d="M 331.113281 113.4375 C 331.894531 115 335.023438 116.5625 337.757812 115.390625 C 342.054688 113.4375 340.101562 109.53125 339.710938 108.75 C 336.585938 102.886719 333.066406 97.023438 328.769531 91.554688 C 327.207031 89.207031 323.6875 88.816406 321.734375 90.769531 C 319.78125 92.335938 319.390625 95.070312 320.953125 97.414062 C 320.953125 97.414062 327.988281 107.964844 331.113281 113.4375 Z M 331.113281 113.4375 " fill-opacity="1" fill-rule="nonzero"/><path fill="#1a3b50" d="M 256.472656 102.496094 C 258.035156 102.496094 259.597656 101.714844 260.769531 100.152344 L 264.675781 93.507812 C 265.851562 91.164062 264.675781 88.035156 262.332031 86.863281 C 260.378906 85.691406 257.644531 86.472656 256.082031 88.425781 L 252.171875 95.070312 C 249.828125 98.195312 252.171875 102.105469 256.472656 102.496094 Z M 256.472656 102.496094 " fill-opacity="1" fill-rule="nonzero"/><path fill="#1a3b50" d="M 206.839844 88.035156 C 209.574219 88.035156 211.527344 86.082031 211.527344 83.347656 L 211.527344 75.53125 C 211.527344 72.792969 209.183594 70.839844 206.839844 70.839844 C 204.496094 70.839844 202.148438 73.183594 202.148438 75.53125 L 202.148438 83.347656 C 202.148438 85.691406 204.105469 88.035156 206.839844 88.035156 Z M 206.839844 88.035156 " fill-opacity="1" fill-rule="nonzero"/><path fill="#1a3b50" d="M 150.5625 84.519531 C 148.21875 85.691406 147.4375 88.816406 148.609375 91.164062 L 152.519531 97.804688 C 153.300781 99.367188 156.035156 101.324219 159.160156 99.757812 C 161.507812 98.585938 162.289062 95.460938 161.117188 93.117188 C 161.117188 93.117188 157.207031 86.472656 157.207031 86.472656 C 155.253906 82.566406 151.347656 84.128906 150.5625 84.519531 Z M 150.5625 84.519531 " fill-opacity="1" fill-rule="nonzero"/><path fill="#1a3b50" d="M 113.4375 238.492188 L 120.082031 234.585938 C 122.425781 233.414062 123.207031 230.285156 122.035156 227.941406 C 120.863281 225.597656 117.738281 224.816406 115.390625 225.988281 L 108.75 229.894531 C 106.402344 231.066406 105.621094 234.195312 106.792969 236.539062 C 107.578125 238.492188 109.921875 240.449219 113.4375 238.492188 Z M 113.4375 238.492188 " fill-opacity="1" fill-rule="nonzero"/><path fill="#1a3b50" d="M 145.484375 271.710938 C 143.921875 274.054688 145.09375 278.746094 149.78125 279.136719 C 151.347656 279.136719 152.910156 278.355469 154.082031 276.792969 L 157.988281 270.148438 C 159.550781 267.804688 158.769531 264.675781 156.425781 263.503906 C 154.082031 261.941406 151.347656 262.722656 149.78125 265.066406 C 149.390625 265.066406 145.484375 271.710938 145.484375 271.710938 Z M 145.484375 271.710938 " fill-opacity="1" fill-rule="nonzero"/><path fill="#1a3b50" d="M 198.242188 281.871094 L 198.242188 289.6875 C 198.242188 292.425781 200.195312 294.769531 202.929688 294.769531 C 205.667969 294.769531 207.621094 292.816406 207.621094 290.078125 L 207.621094 282.261719 C 208.011719 275.230469 198.242188 274.839844 198.242188 281.871094 Z M 198.242188 281.871094 " fill-opacity="1" fill-rule="nonzero"/><path fill="#1a3b50" d="M 250.609375 265.457031 C 248.265625 266.632812 247.484375 269.757812 248.65625 272.101562 L 252.5625 278.746094 C 253.34375 280.308594 254.90625 281.480469 256.863281 281.480469 C 257.644531 281.480469 258.425781 281.089844 259.207031 280.699219 C 261.550781 279.527344 262.332031 276.402344 261.160156 274.054688 L 257.253906 267.414062 C 256.082031 265.066406 252.953125 264.285156 250.609375 265.457031 Z M 250.609375 265.457031 " fill-opacity="1" fill-rule="nonzero"/><path fill="#1a3b50" d="M 299.066406 233.804688 L 292.425781 229.894531 C 290.078125 228.332031 286.953125 229.113281 285.78125 231.460938 C 284.609375 233.804688 285 236.539062 287.34375 238.101562 C 287.34375 238.101562 287.34375 238.101562 287.734375 238.101562 L 294.378906 242.011719 C 296.722656 243.574219 299.851562 242.792969 301.023438 240.449219 C 301.023438 240.449219 301.023438 240.449219 301.023438 240.058594 C 302.195312 238.101562 301.414062 234.976562 299.066406 233.804688 Z M 299.066406 233.804688 " fill-opacity="1" fill-rule="nonzero"/><path fill="#1a3b50" d="M 304.539062 179.484375 C 301.804688 179.484375 299.851562 181.4375 299.457031 184.171875 C 299.457031 186.90625 301.414062 189.253906 304.148438 189.253906 L 311.964844 189.253906 C 314.699219 189.253906 316.652344 186.90625 316.652344 184.5625 C 316.652344 182.21875 314.308594 179.875 311.964844 179.875 L 304.539062 179.875 Z M 304.539062 179.484375 " fill-opacity="1" fill-rule="nonzero"/><path fill="#1a3b50" d="M 292.035156 139.621094 C 292.816406 139.621094 293.597656 139.230469 294.378906 138.839844 L 301.023438 134.933594 C 303.367188 133.757812 304.148438 130.632812 302.976562 128.289062 C 301.804688 125.941406 298.675781 125.160156 296.332031 126.335938 L 289.6875 130.242188 C 287.34375 131.414062 286.5625 134.539062 287.734375 136.886719 C 288.515625 138.449219 290.078125 139.230469 292.035156 139.621094 Z M 292.035156 139.621094 " fill-opacity="1" fill-rule="nonzero"/><path fill="#1a3b50" d="M 205.667969 187.691406 C 206.058594 187.296875 206.058594 186.515625 206.058594 186.125 C 206.058594 185.734375 205.667969 184.953125 205.277344 184.5625 C 204.886719 184.171875 204.105469 184.171875 203.714844 184.171875 C 203.320312 184.171875 202.539062 184.5625 202.148438 184.953125 C 201.367188 185.734375 201.367188 187.296875 202.148438 188.082031 C 203.320312 188.863281 204.496094 188.863281 205.667969 187.691406 Z M 205.667969 187.691406 " fill-opacity="1" fill-rule="nonzero"/><path fill="#1a3b50" d="M 204.496094 270.929688 C 253.734375 270.929688 293.207031 231.066406 293.207031 182.21875 C 293.207031 133.367188 253.734375 93.507812 204.496094 93.507812 C 155.253906 93.507812 115.78125 132.976562 115.78125 182.21875 C 115.78125 231.066406 155.644531 270.929688 204.496094 270.929688 Z M 148.609375 136.886719 C 150.5625 134.933594 153.691406 134.539062 155.644531 136.496094 L 199.023438 175.183594 C 200.195312 174.402344 201.757812 174.402344 203.320312 174.011719 C 204.886719 174.011719 206.058594 174.011719 207.621094 174.402344 L 254.125 122.425781 C 255.6875 120.472656 258.816406 119.691406 261.160156 121.644531 C 263.113281 123.207031 263.894531 126.335938 261.941406 128.679688 C 261.941406 128.679688 214.65625 181.4375 214.65625 181.4375 C 215.4375 182.609375 215.4375 184.171875 215.828125 185.734375 C 215.828125 192.378906 210.746094 197.851562 204.105469 197.851562 C 197.460938 197.851562 191.988281 192.769531 191.988281 186.125 C 191.988281 184.953125 191.988281 183.78125 192.378906 182.609375 L 149 143.527344 C 147.046875 141.964844 147.046875 138.839844 148.609375 136.886719 Z M 148.609375 136.886719 " fill-opacity="1" fill-rule="nonzero"/></svg>