<svg xmlns="http://www.w3.org/2000/svg" xmlns:xlink="http://www.w3.org/1999/xlink" width="500" zoomAndPan="magnify" viewBox="0 0 375 374.999991" height="500" preserveAspectRatio="xMidYMid meet" version="1.0"><defs><clipPath id="db52825040"><path d="M 13.910156 79.007812 L 361.160156 79.007812 L 361.160156 295.757812 L 13.910156 295.757812 Z M 13.910156 79.007812 " clip-rule="nonzero"/></clipPath></defs><rect x="-37.5" width="450" fill="#ffffff" y="-37.499999" height="449.999989" fill-opacity="1"/><rect x="-37.5" width="450" fill="#ffffff" y="-37.499999" height="449.999989" fill-opacity="1"/><path fill="#f9ca03" d="M 186.425781 214.308594 C 197.40625 214.308594 206.355469 205.363281 206.355469 194.382812 C 206.355469 183.402344 197.40625 174.453125 186.425781 174.453125 L 74.179688 174.453125 C 63.199219 174.453125 54.253906 183.402344 54.253906 194.382812 C 54.253906 205.363281 63.199219 214.308594 74.179688 214.308594 Z M 186.425781 214.308594 " fill-opacity="1" fill-rule="evenodd"/><path fill="#f9ca03" d="M 223.230469 252.539062 L 111.191406 252.539062 C 100.210938 252.539062 91.261719 261.484375 91.261719 272.464844 C 91.261719 283.445312 100.210938 292.597656 111.191406 292.597656 L 223.230469 292.597656 C 234.210938 292.597656 243.363281 283.445312 243.363281 272.464844 C 243.363281 261.484375 234.210938 252.539062 223.230469 252.539062 Z M 223.230469 252.539062 " fill-opacity="1" fill-rule="evenodd"/><path fill="#f9ca03" d="M 37.171875 136.023438 L 149.417969 136.023438 C 160.398438 136.023438 169.347656 127.074219 169.347656 116.09375 C 169.347656 105.113281 160.398438 96.167969 149.417969 96.167969 L 37.171875 96.167969 C 26.394531 96.167969 17.246094 105.113281 17.246094 116.09375 C 17.246094 127.074219 26.394531 136.023438 37.171875 136.023438 Z M 37.171875 136.023438 " fill-opacity="1" fill-rule="evenodd"/><path fill="#03192f" d="M 277.523438 100.84375 L 277.523438 242.371094 L 295.824219 260.671875 L 314.125 242.371094 L 314.125 100.84375 C 314.125 90.878906 305.992188 82.542969 295.824219 82.542969 C 285.863281 82.542969 277.523438 90.878906 277.523438 100.84375 Z M 277.523438 100.84375 " fill-opacity="1" fill-rule="evenodd"/><path fill="#1a3b50" d="M 314.125 242.371094 L 295.824219 260.671875 L 277.523438 242.371094 L 250.074219 214.714844 C 246.414062 211.257812 240.515625 211.257812 236.855469 214.714844 C 233.195312 218.375 233.195312 224.273438 236.855469 227.933594 L 289.320312 280.394531 C 292.980469 283.851562 298.875 283.851562 302.535156 280.394531 L 354.796875 227.933594 C 358.457031 224.273438 358.457031 218.375 354.796875 214.714844 C 351.339844 211.257812 345.441406 211.257812 341.78125 214.714844 Z M 314.125 242.371094 " fill-opacity="1" fill-rule="evenodd"/><g clip-path="url(#db52825040)"><path fill="#000000" d="M 37.171875 92.710938 L 149.417969 92.710938 C 171.175781 92.710938 180.328125 119.550781 165.6875 132.769531 C 161.617188 136.835938 155.722656 139.480469 149.417969 139.480469 L 37.171875 139.480469 C 15.617188 139.480469 6.46875 112.636719 20.90625 99.421875 C 25.175781 95.355469 30.871094 92.710938 37.171875 92.710938 Z M 295.824219 255.792969 L 310.871094 240.949219 L 310.871094 100.84375 C 310.871094 87.828125 294.808594 80.917969 285.25 90.269531 C 282.609375 93.117188 280.980469 96.777344 280.980469 100.84375 L 280.980469 240.949219 Z M 317.582031 234.238281 L 339.542969 212.277344 C 352.355469 200.683594 368.621094 218.988281 357.234375 230.375 L 304.773438 282.632812 C 299.890625 287.714844 291.960938 287.714844 286.878906 282.632812 L 234.414062 230.375 C 229.535156 225.289062 229.535156 217.359375 234.414062 212.480469 C 239.5 207.394531 247.429688 207.394531 252.308594 212.480469 L 274.269531 234.238281 L 274.269531 100.84375 C 274.269531 94.945312 276.710938 89.457031 280.574219 85.59375 C 294.199219 71.765625 317.582031 81.730469 317.582031 100.84375 Z M 344.222656 217.15625 L 298.265625 263.113281 C 297.046875 264.332031 294.808594 264.332031 293.589844 263.113281 L 247.632812 217.15625 C 245.394531 214.917969 241.53125 214.917969 239.296875 217.15625 C 237.058594 219.394531 237.058594 223.257812 239.296875 225.492188 L 291.757812 277.957031 C 293.996094 280.191406 297.65625 280.191406 300.097656 277.957031 L 352.558594 225.492188 C 358.046875 219.800781 349.304688 211.667969 344.222656 217.15625 Z M 111.191406 249.285156 L 223.230469 249.285156 C 244.988281 249.285156 254.140625 275.921875 239.703125 289.140625 C 235.433594 293.410156 229.738281 295.851562 223.230469 295.851562 L 111.191406 295.851562 C 90.652344 295.851562 79.875 270.839844 94.71875 255.996094 C 98.785156 251.929688 104.683594 249.285156 111.191406 249.285156 Z M 223.230469 255.996094 L 111.191406 255.996094 C 106.511719 255.996094 102.445312 257.824219 99.394531 260.875 C 89.027344 271.246094 96.550781 289.140625 111.191406 289.140625 L 223.230469 289.140625 C 237.871094 289.140625 245.394531 271.246094 235.027344 260.875 C 231.976562 257.824219 227.910156 255.996094 223.230469 255.996094 Z M 74.179688 170.996094 L 186.425781 170.996094 C 206.964844 170.996094 217.742188 196.007812 202.898438 210.851562 C 198.628906 215.121094 192.730469 217.765625 186.425781 217.765625 L 74.179688 217.765625 C 53.847656 217.765625 42.867188 192.753906 57.710938 177.910156 C 61.980469 173.640625 67.878906 170.996094 74.179688 170.996094 Z M 186.425781 177.707031 L 74.179688 177.707031 C 59.539062 177.707031 52.015625 195.601562 62.589844 205.972656 C 65.4375 209.023438 69.707031 210.851562 74.179688 210.851562 L 186.425781 210.851562 C 200.863281 210.851562 208.589844 193.160156 198.015625 182.589844 C 195.171875 179.539062 190.902344 177.707031 186.425781 177.707031 Z M 149.417969 99.625 L 37.171875 99.625 C 22.734375 99.625 15.007812 117.316406 25.582031 127.886719 C 28.632812 130.734375 32.699219 132.769531 37.171875 132.769531 L 149.417969 132.769531 C 164.058594 132.769531 171.582031 114.875 161.210938 104.503906 C 158.164062 101.453125 154.09375 99.625 149.417969 99.625 Z M 149.417969 99.625 " fill-opacity="1" fill-rule="nonzero"/></g></svg>