<svg xmlns="http://www.w3.org/2000/svg" xmlns:xlink="http://www.w3.org/1999/xlink" width="500" zoomAndPan="magnify" viewBox="0 0 375 374.999991" height="500" preserveAspectRatio="xMidYMid meet" version="1.0"><defs><clipPath id="deebc0222f"><path d="M 40.269531 39.160156 L 335 39.160156 L 335 334 L 40.269531 334 Z M 40.269531 39.160156 " clip-rule="nonzero"/></clipPath></defs><rect x="-37.5" width="450" fill="#ffffff" y="-37.499999" height="449.999989" fill-opacity="1"/><rect x="-37.5" width="450" fill="#ffffff" y="-37.499999" height="449.999989" fill-opacity="1"/><g clip-path="url(#deebc0222f)"><path fill="#1a3b50" d="M 333.457031 168.332031 C 333.289062 168.332031 333.113281 168.332031 332.957031 168.300781 C 325.265625 168.015625 317.558594 167.558594 309.867188 167.515625 C 308.921875 167.515625 308.105469 167.402344 307.417969 167.199219 C 304.867188 151.375 299.257812 136.558594 291.175781 123.34375 C 291.707031 122.582031 292.578125 121.738281 293.894531 120.53125 C 299.285156 115.503906 304.683594 110.449219 310.15625 105.523438 C 301.289062 92.128906 290.257812 80.226562 277.542969 70.386719 C 271.855469 75.757812 266.011719 80.96875 260.382812 86.386719 C 259.621094 87.101562 258.933594 87.621094 258.21875 87.917969 C 245.640625 78.882812 231.246094 72.175781 215.632812 68.492188 C 215.53125 67.992188 215.503906 67.433594 215.558594 66.777344 C 215.875 62.648438 215.929688 58.484375 216.078125 54.328125 L 216.132812 54.328125 C 216.265625 50.40625 216.320312 46.480469 216.609375 42.585938 L 216.636719 42.484375 C 209.027344 40.953125 201.210938 40.007812 193.230469 39.71875 C 191.238281 39.636719 189.234375 39.617188 187.257812 39.617188 C 181.3125 39.617188 175.441406 39.949219 169.679688 40.664062 L 169.679688 40.777344 C 169.679688 44.671875 169.410156 48.585938 169.253906 52.484375 L 169.308594 52.511719 C 169.152344 56.664062 168.863281 60.804688 168.863281 64.957031 C 168.863281 65.617188 168.78125 66.175781 168.625 66.648438 C 152.78125 69.125 137.910156 74.671875 124.664062 82.703125 C 123.988281 82.359375 123.347656 81.777344 122.640625 81.015625 C 117.457031 75.171875 112.03125 69.511719 106.769531 63.726562 C 93.347656 72.566406 81.417969 83.546875 71.523438 96.210938 C 76.632812 101.570312 81.605469 107.023438 86.578125 112.441406 C 87.792969 113.757812 88.609375 114.6875 89.082031 115.476562 C 80 128 73.238281 142.347656 69.472656 157.933594 C 68.757812 158.089844 67.941406 158.117188 66.996094 158.0625 C 59.316406 157.503906 51.625 157.347656 43.90625 157.03125 L 43.445312 157.03125 C 41.855469 164.796875 40.855469 172.773438 40.539062 180.9375 C 40.226562 189.042969 40.597656 197.039062 41.542969 204.859375 C 41.855469 204.886719 42.171875 204.914062 42.515625 204.941406 C 50.59375 205.15625 58.65625 205.601562 66.734375 205.832031 C 67.023438 205.832031 67.28125 205.859375 67.550781 205.890625 C 70.101562 221.972656 75.84375 237.054688 84.109375 250.394531 C 83.8125 250.820312 83.421875 251.210938 82.976562 251.636719 C 77.46875 256.507812 72.152344 261.5625 66.761719 266.535156 C 66.105469 267.136719 65.519531 267.667969 65.074219 268.140625 C 73.898438 281.40625 84.84375 293.148438 97.421875 302.914062 C 97.558594 302.804688 97.71875 302.648438 97.847656 302.515625 C 103.578125 296.988281 109.535156 291.746094 115.265625 286.246094 C 115.722656 285.828125 116.113281 285.515625 116.527344 285.246094 C 129.199219 294.355469 143.699219 301.125 159.410156 304.835938 C 159.542969 305.4375 159.570312 306.125 159.515625 306.886719 C 158.996094 314.707031 158.882812 322.542969 158.464844 330.335938 C 158.464844 330.519531 158.4375 330.679688 158.4375 330.835938 C 166.015625 332.367188 173.808594 333.285156 181.785156 333.601562 C 183.789062 333.683594 185.765625 333.730469 187.730469 333.730469 C 193.660156 333.730469 199.503906 333.367188 205.261719 332.65625 C 205.261719 332.496094 205.261719 332.339844 205.292969 332.179688 C 205.476562 324.332031 205.976562 316.523438 206.050781 308.703125 C 206.050781 307.941406 206.136719 307.257812 206.320312 306.671875 C 221.246094 304.335938 235.300781 299.28125 247.933594 292.015625 L 213.527344 256.210938 C 208.109375 258.269531 202.398438 259.691406 196.46875 260.402344 C 192.601562 260.847656 188.632812 261.035156 184.605469 260.875 C 180.597656 260.71875 176.65625 260.246094 172.835938 259.476562 C 161.359375 257.167969 150.886719 252.242188 142.011719 245.367188 C 135.664062 240.453125 130.144531 234.496094 125.664062 227.816406 C 119.40625 218.421875 115.25 207.519531 113.792969 195.863281 C 113.300781 191.910156 113.132812 187.855469 113.300781 183.757812 C 113.457031 179.648438 113.960938 175.621094 114.75 171.699219 C 117.085938 160.242188 122.039062 149.796875 128.929688 140.976562 C 133.929688 134.585938 139.933594 129.027344 146.722656 124.585938 C 156.101562 118.417969 166.917969 114.316406 178.492188 112.925781 C 182.386719 112.441406 186.367188 112.285156 190.394531 112.441406 C 194.417969 112.601562 198.371094 113.074219 202.210938 113.84375 C 213.65625 116.164062 224.140625 121.078125 232.980469 127.925781 C 239.40625 132.925781 244.957031 138.925781 249.464844 145.6875 C 255.640625 155.011719 259.75 165.824219 261.199219 177.410156 C 261.699219 181.355469 261.882812 185.433594 261.699219 189.542969 C 261.539062 193.652344 261.066406 197.652344 260.277344 201.546875 C 259.195312 206.890625 257.570312 211.972656 255.410156 216.789062 L 289.65625 252.425781 C 296.917969 241.183594 302.363281 228.632812 305.601562 215.15625 C 305.84375 215.15625 306.128906 215.15625 306.417969 215.183594 C 314.480469 215.546875 322.558594 215.757812 330.609375 216.15625 C 330.953125 216.183594 331.296875 216.183594 331.582031 216.15625 C 333.160156 208.441406 334.132812 200.488281 334.449219 192.382812 C 334.765625 184.21875 334.421875 176.195312 333.457031 168.332031 " fill-opacity="1" fill-rule="nonzero"/></g><path fill="#1a3b50" d="M 317.921875 323.472656 C 315.816406 325.445312 313.105469 326.421875 310.445312 326.335938 C 307.761719 326.261719 305.101562 325.179688 303.105469 323.074219 C 299.128906 318.859375 299.285156 312.230469 303.496094 308.257812 C 305.601562 306.253906 308.292969 305.28125 310.972656 305.355469 C 313.679688 305.4375 316.316406 306.542969 318.320312 308.621094 C 322.316406 312.832031 322.132812 319.472656 317.921875 323.472656 Z M 233.5625 207.363281 L 233.5625 207.335938 C 233.0625 206.648438 232.609375 205.992188 232.246094 205.332031 C 233.453125 202.492188 234.378906 199.496094 235.011719 196.390625 C 235.539062 193.828125 235.847656 191.222656 235.957031 188.542969 C 236.058594 185.863281 235.957031 183.199219 235.640625 180.621094 C 235.140625 176.566406 234.113281 172.671875 232.664062 168.980469 C 232.347656 168.0625 232.007812 167.171875 231.644531 166.269531 C 231.617188 166.253906 231.617188 166.195312 231.589844 166.167969 C 229.769531 161.882812 227.347656 157.800781 224.324219 154.136719 C 223.371094 153.089844 222.378906 152.03125 221.273438 151.011719 C 219.796875 149.6875 216.738281 147.664062 215.03125 146.273438 C 212.292969 144.582031 209.371094 143.109375 206.320312 141.949219 C 206.238281 141.929688 206.164062 141.902344 206.078125 141.875 C 201.023438 140.011719 195.605469 138.925781 189.949219 138.769531 C 181.542969 138.535156 173.578125 140.398438 166.574219 143.878906 L 165.488281 145.503906 C 165.488281 145.503906 165.859375 145.742188 166.515625 146.214844 C 169.867188 148.507812 180.421875 155.769531 185.710938 159.433594 C 187.054688 160.378906 187.84375 161.902344 187.863281 163.488281 C 187.890625 163.535156 187.863281 163.5625 187.890625 163.589844 C 187.890625 164.136719 187.789062 164.695312 187.628906 165.25 C 183.472656 177.828125 176.785156 187.625 167.863281 194.886719 C 167.492188 195.203125 167.074219 195.445312 166.675781 195.621094 C 165.097656 196.308594 163.253906 196.175781 161.777344 195.175781 C 156.332031 191.519531 145.203125 183.988281 141.695312 181.621094 C 141.007812 181.148438 140.617188 180.878906 140.617188 180.878906 L 139.117188 183.144531 L 138.855469 183.570312 C 138.773438 184.460938 138.699219 185.378906 138.644531 186.308594 C 138.671875 190.148438 139.246094 197.96875 142.640625 206.277344 C 144.429688 210 146.703125 213.496094 149.441406 216.703125 C 149.542969 216.863281 149.644531 216.992188 149.828125 217.148438 C 152.148438 220.054688 154.828125 222.679688 157.808594 224.996094 C 163.59375 229.476562 170.441406 232.707031 177.917969 234.207031 C 180.421875 234.710938 183 234.996094 185.605469 235.109375 C 188.234375 235.210938 190.839844 235.109375 193.34375 234.792969 C 196.65625 234.394531 199.847656 233.6875 202.925781 232.632812 C 203.714844 233.132812 204.503906 233.734375 205.347656 234.394531 L 296.546875 329.289062 C 300.230469 333.210938 305.210938 335.234375 310.183594 335.363281 C 315.183594 335.519531 320.238281 333.730469 324.164062 330.019531 C 331.984375 322.597656 332.296875 310.226562 324.867188 302.386719 L 233.5625 207.363281 " fill-opacity="1" fill-rule="nonzero"/></svg>