<svg xmlns="http://www.w3.org/2000/svg" xmlns:xlink="http://www.w3.org/1999/xlink" width="500" zoomAndPan="magnify" viewBox="0 0 375 374.999991" height="500" preserveAspectRatio="xMidYMid meet" version="1.0"><defs><clipPath id="f9f4adf29b"><path d="M 15.050781 15.050781 L 360.050781 15.050781 L 360.050781 360.050781 L 15.050781 360.050781 Z M 15.050781 15.050781 " clip-rule="nonzero"/></clipPath></defs><g clip-path="url(#f9f4adf29b)"><path fill="#000000" d="M 319.3125 15.050781 L 55.789062 15.050781 C 33.382812 15.050781 15.050781 33.382812 15.050781 55.789062 L 15.050781 319.3125 C 15.050781 341.714844 33.382812 360.050781 55.789062 360.050781 L 319.3125 360.050781 C 341.714844 360.050781 360.050781 341.714844 360.050781 319.3125 L 360.050781 55.789062 C 360.050781 33.382812 341.714844 15.050781 319.3125 15.050781 Z M 345.96875 319.3125 C 345.96875 333.972656 333.972656 345.96875 319.3125 345.96875 L 55.789062 345.96875 C 41.128906 345.96875 29.132812 333.972656 29.132812 319.3125 L 29.132812 55.789062 C 29.132812 41.128906 41.128906 29.132812 55.789062 29.132812 L 319.304688 29.132812 C 333.972656 29.132812 345.96875 41.128906 345.96875 55.789062 Z M 177.46875 137.144531 L 157.304688 137.144531 L 157.304688 56.492188 L 177.46875 56.492188 L 177.46875 76.65625 L 197.632812 76.65625 L 197.632812 96.824219 L 177.46875 96.824219 Z M 318.609375 56.492188 L 237.957031 56.492188 L 237.957031 137.144531 L 318.609375 137.144531 Z M 298.441406 116.980469 L 258.121094 116.980469 L 258.121094 76.65625 L 298.441406 76.65625 Z M 56.492188 318.609375 L 137.144531 318.609375 L 137.144531 237.957031 L 56.492188 237.957031 Z M 76.65625 258.121094 L 116.980469 258.121094 L 116.980469 298.441406 L 76.65625 298.441406 Z M 298.441406 177.46875 L 318.609375 177.46875 L 318.609375 197.632812 L 298.441406 197.632812 L 298.441406 217.796875 L 278.277344 217.796875 L 278.277344 177.476562 L 258.113281 177.476562 L 258.113281 197.640625 L 237.949219 197.640625 L 237.949219 237.960938 L 278.269531 237.960938 L 278.269531 278.285156 L 237.949219 278.285156 L 237.949219 258.121094 L 197.625 258.121094 L 197.625 298.441406 L 177.460938 298.441406 L 177.460938 258.121094 L 157.296875 258.121094 L 157.296875 237.957031 L 197.617188 237.957031 L 197.617188 217.789062 L 177.453125 217.789062 L 177.453125 197.625 L 157.289062 197.625 L 157.289062 217.789062 L 76.65625 217.789062 L 76.65625 157.304688 L 96.824219 157.304688 L 96.824219 197.625 L 116.988281 197.625 L 116.988281 177.460938 L 177.476562 177.460938 L 177.476562 157.296875 L 197.640625 157.296875 L 197.640625 197.617188 L 217.804688 197.617188 L 217.804688 177.453125 L 237.96875 177.453125 L 237.96875 157.289062 L 298.457031 157.289062 L 298.457031 177.46875 Z M 197.632812 116.980469 L 217.796875 116.980469 L 217.796875 137.144531 L 197.632812 137.144531 Z M 318.609375 258.121094 L 318.609375 318.609375 L 217.789062 318.609375 L 217.789062 298.441406 L 298.441406 298.441406 L 298.441406 258.121094 Z M 137.144531 56.492188 L 56.492188 56.492188 L 56.492188 137.144531 L 137.144531 137.144531 Z M 116.980469 116.980469 L 76.65625 116.980469 L 76.65625 76.65625 L 116.980469 76.65625 Z M 116.980469 116.980469 " fill-opacity="1" fill-rule="evenodd"/></g></svg>